<?xml version="1.0" encoding="UTF-8" standalone="no"?>
<!DOCTYPE svg PUBLIC "-//W3C//DTD SVG 1.1//EN"
 "http://www.w3.org/Graphics/SVG/1.1/DTD/svg11.dtd">
<!-- Generated by graphviz version 2.43.0 (0)
 -->
<!-- Title: G Pages: 1 -->
<svg width="1398pt" height="1055pt"
 viewBox="0.00 0.00 1398.00 1055.00" xmlns="http://www.w3.org/2000/svg" xmlns:xlink="http://www.w3.org/1999/xlink">
<g id="graph0" class="graph" transform="scale(1 1) rotate(0) translate(4 1051)">
<title>G</title>
<polygon fill="white" stroke="transparent" points="-4,4 -4,-1051 1394,-1051 1394,4 -4,4"/>
<!-- n3 -->
<g id="node1" class="node">
<title>n3</title>
<polygon fill="#d5d897" stroke="black" points="257,-0.5 257,-43.5 645,-43.5 645,-0.5 257,-0.5"/>
<text text-anchor="start" x="265" y="-33.1" font-family="Helvetica,sans-Serif" font-size="8.00">State_B_1( ~ID, ~k2, ~ltkA, ~score</text>
<text text-anchor="start" x="265" y="-24.1" font-family="Helvetica,sans-Serif" font-size="8.00">)</text>
<polyline fill="none" stroke="black" points="415,-17.5 415,-43.5 "/>
<text text-anchor="start" x="423" y="-33.1" font-family="Helvetica,sans-Serif" font-size="8.00">In_A( &#39;3&#39;, CKKS_enc(mul(~score, ~weight), pk(~ltkA))</text>
<text text-anchor="start" x="423" y="-24.1" font-family="Helvetica,sans-Serif" font-size="8.00">)</text>
<polyline fill="none" stroke="black" points="257,-17.5 645,-17.5 "/>
<text text-anchor="middle" x="451" y="-7.1" font-family="Helvetica,sans-Serif" font-size="8.00">#i : B_2[Finish( mul(~score, ~weight) )]</text>
</g>
<!-- n11 -->
<g id="node2" class="node">
<title>n11</title>
<polygon fill="#abdc9a" stroke="black" points="0,-672.5 0,-750.5 406,-750.5 406,-672.5 0,-672.5"/>
<text text-anchor="middle" x="47" y="-740.1" font-family="Helvetica,sans-Serif" font-size="8.00">!Intersection( ~ID )</text>
<polyline fill="none" stroke="black" points="94,-733.5 94,-750.5 "/>
<text text-anchor="middle" x="143" y="-740.1" font-family="Helvetica,sans-Serif" font-size="8.00">!ForB( ~score, ~k2 )</text>
<polyline fill="none" stroke="black" points="192,-733.5 192,-750.5 "/>
<text text-anchor="middle" x="243.5" y="-740.1" font-family="Helvetica,sans-Serif" font-size="8.00">!Ltk_CKKS( &#39;B&#39;, ~ltkA )</text>
<polyline fill="none" stroke="black" points="295,-733.5 295,-750.5 "/>
<text text-anchor="middle" x="350.5" y="-740.1" font-family="Helvetica,sans-Serif" font-size="8.00">In_A( &#39;1&#39;, RO(~ID, ~k1) )</text>
<polyline fill="none" stroke="black" points="0,-733.5 406,-733.5 "/>
<text text-anchor="middle" x="203" y="-723.1" font-family="Helvetica,sans-Serif" font-size="8.00">#vr : B_1[]</text>
<polyline fill="none" stroke="black" points="0,-716.5 406,-716.5 "/>
<text text-anchor="start" x="8" y="-706.1" font-family="Helvetica,sans-Serif" font-size="8.00">Out_A( &#39;2&#39;,</text>
<text text-anchor="start" x="8" y="-697.1" font-family="Helvetica,sans-Serif" font-size="8.00">       &lt;RO(RO(~ID, ~k1), ~k2), RO(~ID, ~k2), </text>
<text text-anchor="start" x="8" y="-688.1" font-family="Helvetica,sans-Serif" font-size="8.00">        CKKS_enc(~score, pk(~ltkA))&gt;</text>
<text text-anchor="start" x="8" y="-679.1" font-family="Helvetica,sans-Serif" font-size="8.00">)</text>
<polyline fill="none" stroke="black" points="249,-672.5 249,-716.5 "/>
<text text-anchor="start" x="257" y="-701.6" font-family="Helvetica,sans-Serif" font-size="8.00">State_B_1( ~ID, ~k2,</text>
<text text-anchor="start" x="257" y="-692.6" font-family="Helvetica,sans-Serif" font-size="8.00">           ~ltkA, ~score</text>
<text text-anchor="start" x="257" y="-683.6" font-family="Helvetica,sans-Serif" font-size="8.00">)</text>
</g>
<!-- n11&#45;&gt;n3 -->
<g id="edge1" class="edge">
<title>n11:n10&#45;&gt;n3:n0</title>
<path fill="none" stroke="black" stroke-width="2" d="M328,-672C328,-594.18 334,-574.82 334,-497 334,-497 334,-497 334,-174 334,-119.71 335.77,-103.69 335.98,-54.04"/>
<polygon fill="black" stroke="black" stroke-width="2" points="339.48,-54.01 336,-44 332.48,-53.99 339.48,-54.01"/>
</g>
<!-- n21 -->
<g id="node3" class="node">
<title>n21</title>
<polygon fill="#cfd897" stroke="black" points="504,-995.5 504,-1046.5 800,-1046.5 800,-995.5 504,-995.5"/>
<text text-anchor="middle" x="530" y="-1036.1" font-family="Helvetica,sans-Serif" font-size="8.00">Fr( ~ID )</text>
<polyline fill="none" stroke="black" points="556,-1029.5 556,-1046.5 "/>
<text text-anchor="middle" x="591.5" y="-1036.1" font-family="Helvetica,sans-Serif" font-size="8.00">Fr( ~weight )</text>
<polyline fill="none" stroke="black" points="627,-1029.5 627,-1046.5 "/>
<text text-anchor="middle" x="660" y="-1036.1" font-family="Helvetica,sans-Serif" font-size="8.00">Fr( ~score )</text>
<polyline fill="none" stroke="black" points="693,-1029.5 693,-1046.5 "/>
<text text-anchor="middle" x="719.5" y="-1036.1" font-family="Helvetica,sans-Serif" font-size="8.00">Fr( ~k1 )</text>
<polyline fill="none" stroke="black" points="746,-1029.5 746,-1046.5 "/>
<text text-anchor="middle" x="773" y="-1036.1" font-family="Helvetica,sans-Serif" font-size="8.00">Fr( ~k2 )</text>
<polyline fill="none" stroke="black" points="504,-1029.5 800,-1029.5 "/>
<text text-anchor="middle" x="652" y="-1019.1" font-family="Helvetica,sans-Serif" font-size="8.00">#vr.1 : intersection[Only_once( &#39;setup&#39; )]</text>
<polyline fill="none" stroke="black" points="504,-1012.5 800,-1012.5 "/>
<text text-anchor="middle" x="551" y="-1002.1" font-family="Helvetica,sans-Serif" font-size="8.00">!Intersection( ~ID )</text>
<polyline fill="none" stroke="black" points="598,-995.5 598,-1012.5 "/>
<text text-anchor="middle" x="650" y="-1002.1" font-family="Helvetica,sans-Serif" font-size="8.00">!ForA( ~weight, ~k1 )</text>
<polyline fill="none" stroke="black" points="702,-995.5 702,-1012.5 "/>
<text text-anchor="middle" x="751" y="-1002.1" font-family="Helvetica,sans-Serif" font-size="8.00">!ForB( ~score, ~k2 )</text>
</g>
<!-- n21&#45;&gt;n11 -->
<g id="edge2" class="edge">
<title>n21:n18&#45;&gt;n11:n4</title>
<path fill="none" stroke="#7f7f7f" stroke-width="2" d="M503,-1004C461.86,-1004 169.2,-994.31 134,-973 46.27,-919.89 46.86,-860.91 46.99,-761.11"/>
<polygon fill="#7f7f7f" stroke="#7f7f7f" stroke-width="2" points="50.49,-761 47,-751 43.49,-761 50.49,-761"/>
</g>
<!-- n21&#45;&gt;n11 -->
<g id="edge10" class="edge">
<title>n21:n20&#45;&gt;n11:n5</title>
<path fill="none" stroke="#7f7f7f" stroke-width="2" d="M801,-1004C907.59,-1004 1100.43,-997.3 1026,-921 991.54,-885.68 177.19,-928.99 138,-899 92.86,-864.45 91.6,-824.35 116,-773 120.57,-763.39 131.62,-763.91 138.08,-760.15"/>
<polygon fill="#7f7f7f" stroke="#7f7f7f" stroke-width="2" points="141.34,-761.46 143,-751 135.18,-758.15 141.34,-761.46"/>
</g>
<!-- n53 -->
<g id="node9" class="node">
<title>n53</title>
<polygon fill="#a1dd9b" stroke="black" points="473,-921.5 473,-972.5 733,-972.5 733,-921.5 473,-921.5"/>
<text text-anchor="middle" x="535.5" y="-962.1" font-family="Helvetica,sans-Serif" font-size="8.00">!Intersection( ~ID )</text>
<polyline fill="none" stroke="black" points="598,-955.5 598,-972.5 "/>
<text text-anchor="middle" x="665.5" y="-962.1" font-family="Helvetica,sans-Serif" font-size="8.00">!ForA( ~weight, ~k1 )</text>
<polyline fill="none" stroke="black" points="473,-955.5 733,-955.5 "/>
<text text-anchor="middle" x="603" y="-945.1" font-family="Helvetica,sans-Serif" font-size="8.00">#vr.7 : A_1[]</text>
<polyline fill="none" stroke="black" points="473,-938.5 733,-938.5 "/>
<text text-anchor="middle" x="532" y="-928.1" font-family="Helvetica,sans-Serif" font-size="8.00">Out_A( &#39;1&#39;, RO(~ID, ~k1) )</text>
<polyline fill="none" stroke="black" points="591,-921.5 591,-938.5 "/>
<text text-anchor="middle" x="662" y="-928.1" font-family="Helvetica,sans-Serif" font-size="8.00">State_A_1( ~ID, ~k1, ~weight )</text>
</g>
<!-- n21&#45;&gt;n53 -->
<g id="edge3" class="edge">
<title>n21:n18&#45;&gt;n53:n48</title>
<path fill="none" stroke="#7f7f7f" stroke-width="2" d="M551,-995C551,-987.25 544.43,-985.37 539.71,-981.83"/>
<polygon fill="#7f7f7f" stroke="#7f7f7f" stroke-width="2" points="542.8,-980.17 535,-973 536.62,-983.47 542.8,-980.17"/>
</g>
<!-- n21&#45;&gt;n53 -->
<g id="edge7" class="edge">
<title>n21:n19&#45;&gt;n53:n49</title>
<path fill="none" stroke="#7f7f7f" stroke-width="2" d="M650,-995C650,-987.25 656.57,-985.37 661.29,-981.83"/>
<polygon fill="#7f7f7f" stroke="#7f7f7f" stroke-width="2" points="664.38,-983.47 666,-973 658.2,-980.17 664.38,-983.47"/>
</g>
<!-- n68 -->
<g id="node12" class="node">
<title>n68</title>
<polygon fill="#a1dd9b" stroke="black" points="145,-921.5 145,-972.5 405,-972.5 405,-921.5 145,-921.5"/>
<text text-anchor="middle" x="207.5" y="-962.1" font-family="Helvetica,sans-Serif" font-size="8.00">!Intersection( ~ID )</text>
<polyline fill="none" stroke="black" points="270,-955.5 270,-972.5 "/>
<text text-anchor="middle" x="337.5" y="-962.1" font-family="Helvetica,sans-Serif" font-size="8.00">!ForA( ~weight, ~k1 )</text>
<polyline fill="none" stroke="black" points="145,-955.5 405,-955.5 "/>
<text text-anchor="middle" x="275" y="-945.1" font-family="Helvetica,sans-Serif" font-size="8.00">#vr.10 : A_1[]</text>
<polyline fill="none" stroke="black" points="145,-938.5 405,-938.5 "/>
<text text-anchor="middle" x="204" y="-928.1" font-family="Helvetica,sans-Serif" font-size="8.00">Out_A( &#39;1&#39;, RO(~ID, ~k1) )</text>
<polyline fill="none" stroke="black" points="263,-921.5 263,-938.5 "/>
<text text-anchor="middle" x="334" y="-928.1" font-family="Helvetica,sans-Serif" font-size="8.00">State_A_1( ~ID, ~k1, ~weight )</text>
</g>
<!-- n21&#45;&gt;n68 -->
<g id="edge4" class="edge">
<title>n21:n18&#45;&gt;n68:n63</title>
<path fill="none" stroke="#7f7f7f" stroke-width="2" d="M503,-1004C488.21,-1004 263.03,-992.42 215.69,-978.15"/>
<polygon fill="#7f7f7f" stroke="#7f7f7f" stroke-width="2" points="217.39,-975.09 207,-973 213.82,-981.11 217.39,-975.09"/>
</g>
<!-- n21&#45;&gt;n68 -->
<g id="edge8" class="edge">
<title>n21:n19&#45;&gt;n68:n64</title>
<path fill="none" stroke="#7f7f7f" stroke-width="2" d="M650,-995C650,-969.55 446.28,-980.63 422,-973 418.84,-972.01 416.95,-970.34 415.28,-968.7"/>
<polygon fill="#7f7f7f" stroke="#7f7f7f" stroke-width="2" points="416.5,-965.4 406,-964 413.34,-971.64 416.5,-965.4"/>
</g>
<!-- n85 -->
<g id="node15" class="node">
<title>n85</title>
<polygon fill="#abdc9a" stroke="black" points="883,-672.5 883,-750.5 1289,-750.5 1289,-672.5 883,-672.5"/>
<text text-anchor="middle" x="930" y="-740.1" font-family="Helvetica,sans-Serif" font-size="8.00">!Intersection( ~ID )</text>
<polyline fill="none" stroke="black" points="977,-733.5 977,-750.5 "/>
<text text-anchor="middle" x="1026" y="-740.1" font-family="Helvetica,sans-Serif" font-size="8.00">!ForB( ~score, ~k2 )</text>
<polyline fill="none" stroke="black" points="1075,-733.5 1075,-750.5 "/>
<text text-anchor="middle" x="1126.5" y="-740.1" font-family="Helvetica,sans-Serif" font-size="8.00">!Ltk_CKKS( &#39;B&#39;, ~ltkA )</text>
<polyline fill="none" stroke="black" points="1178,-733.5 1178,-750.5 "/>
<text text-anchor="middle" x="1233.5" y="-740.1" font-family="Helvetica,sans-Serif" font-size="8.00">In_A( &#39;1&#39;, RO(~ID, ~k1) )</text>
<polyline fill="none" stroke="black" points="883,-733.5 1289,-733.5 "/>
<text text-anchor="middle" x="1086" y="-723.1" font-family="Helvetica,sans-Serif" font-size="8.00">#vr.13 : B_1[]</text>
<polyline fill="none" stroke="black" points="883,-716.5 1289,-716.5 "/>
<text text-anchor="start" x="891" y="-706.1" font-family="Helvetica,sans-Serif" font-size="8.00">Out_A( &#39;2&#39;,</text>
<text text-anchor="start" x="891" y="-697.1" font-family="Helvetica,sans-Serif" font-size="8.00">       &lt;RO(RO(~ID, ~k1), ~k2), RO(~ID, ~k2), </text>
<text text-anchor="start" x="891" y="-688.1" font-family="Helvetica,sans-Serif" font-size="8.00">        CKKS_enc(~score, pk(~ltkA))&gt;</text>
<text text-anchor="start" x="891" y="-679.1" font-family="Helvetica,sans-Serif" font-size="8.00">)</text>
<polyline fill="none" stroke="black" points="1132,-672.5 1132,-716.5 "/>
<text text-anchor="start" x="1140" y="-701.6" font-family="Helvetica,sans-Serif" font-size="8.00">State_B_1( ~ID, ~k2,</text>
<text text-anchor="start" x="1140" y="-692.6" font-family="Helvetica,sans-Serif" font-size="8.00">           ~ltkA, ~score</text>
<text text-anchor="start" x="1140" y="-683.6" font-family="Helvetica,sans-Serif" font-size="8.00">)</text>
</g>
<!-- n21&#45;&gt;n85 -->
<g id="edge5" class="edge">
<title>n21:n18&#45;&gt;n85:n78</title>
<path fill="none" stroke="#7f7f7f" stroke-width="2" d="M503,-1004C461.86,-1004 439.3,-955.31 462,-921 475.03,-901.3 806.32,-763.38 872.05,-744.61"/>
<polygon fill="#7f7f7f" stroke="#7f7f7f" stroke-width="2" points="872.94,-748 882,-742.5 871.49,-741.15 872.94,-748"/>
</g>
<!-- n21&#45;&gt;n85 -->
<g id="edge11" class="edge">
<title>n21:n20&#45;&gt;n85:n79</title>
<path fill="none" stroke="#7f7f7f" stroke-width="2" d="M801,-1004C830.65,-1004 1046.29,-995.15 1066,-973 1081.36,-955.73 1068.66,-943.96 1066,-921 1057.45,-847.36 1028.75,-830.12 1026.18,-761.09"/>
<polygon fill="#7f7f7f" stroke="#7f7f7f" stroke-width="2" points="1029.68,-760.93 1026,-751 1022.68,-761.06 1029.68,-760.93"/>
</g>
<!-- n100 -->
<g id="node18" class="node">
<title>n100</title>
<polygon fill="#a1dd9b" stroke="black" points="755,-921.5 755,-972.5 1015,-972.5 1015,-921.5 755,-921.5"/>
<text text-anchor="middle" x="817.5" y="-962.1" font-family="Helvetica,sans-Serif" font-size="8.00">!Intersection( ~ID )</text>
<polyline fill="none" stroke="black" points="880,-955.5 880,-972.5 "/>
<text text-anchor="middle" x="947.5" y="-962.1" font-family="Helvetica,sans-Serif" font-size="8.00">!ForA( ~weight, ~k1 )</text>
<polyline fill="none" stroke="black" points="755,-955.5 1015,-955.5 "/>
<text text-anchor="middle" x="885" y="-945.1" font-family="Helvetica,sans-Serif" font-size="8.00">#vr.16 : A_1[]</text>
<polyline fill="none" stroke="black" points="755,-938.5 1015,-938.5 "/>
<text text-anchor="middle" x="814" y="-928.1" font-family="Helvetica,sans-Serif" font-size="8.00">Out_A( &#39;1&#39;, RO(~ID, ~k1) )</text>
<polyline fill="none" stroke="black" points="873,-921.5 873,-938.5 "/>
<text text-anchor="middle" x="944" y="-928.1" font-family="Helvetica,sans-Serif" font-size="8.00">State_A_1( ~ID, ~k1, ~weight )</text>
</g>
<!-- n21&#45;&gt;n100 -->
<g id="edge6" class="edge">
<title>n21:n18&#45;&gt;n100:n95</title>
<path fill="none" stroke="#7f7f7f" stroke-width="2" d="M551,-995C551,-951.83 704.64,-990.73 744,-973 745.19,-972.46 746.06,-971.73 746.74,-970.91"/>
<polygon fill="#7f7f7f" stroke="#7f7f7f" stroke-width="2" points="749.17,-973.43 754,-964 744.34,-968.36 749.17,-973.43"/>
</g>
<!-- n21&#45;&gt;n100 -->
<g id="edge9" class="edge">
<title>n21:n19&#45;&gt;n100:n96</title>
<path fill="none" stroke="#7f7f7f" stroke-width="2" d="M650,-995C650,-964.85 895.8,-998.7 940.93,-980.3"/>
<polygon fill="#7f7f7f" stroke="#7f7f7f" stroke-width="2" points="943.56,-982.62 948,-973 938.53,-977.75 943.56,-982.62"/>
</g>
<!-- n27 -->
<g id="node4" class="node">
<title>n27</title>
<polygon fill="#ccd998" stroke="black" points="353,-773.5 353,-824.5 651,-824.5 651,-773.5 353,-773.5"/>
<text text-anchor="middle" x="502" y="-814.1" font-family="Helvetica,sans-Serif" font-size="8.00">Fr( ~ltkA )</text>
<polyline fill="none" stroke="black" points="353,-807.5 651,-807.5 "/>
<text text-anchor="middle" x="502" y="-797.1" font-family="Helvetica,sans-Serif" font-size="8.00">#vr.2 : Register_CKKS_pk[]</text>
<polyline fill="none" stroke="black" points="353,-790.5 651,-790.5 "/>
<text text-anchor="middle" x="404.5" y="-780.1" font-family="Helvetica,sans-Serif" font-size="8.00">!Ltk_CKKS( &#39;B&#39;, ~ltkA )</text>
<polyline fill="none" stroke="black" points="456,-773.5 456,-790.5 "/>
<text text-anchor="middle" x="514" y="-780.1" font-family="Helvetica,sans-Serif" font-size="8.00">!Pk_CKKS( &#39;B&#39;, pk(~ltkA) )</text>
<polyline fill="none" stroke="black" points="572,-773.5 572,-790.5 "/>
<text text-anchor="middle" x="611.5" y="-780.1" font-family="Helvetica,sans-Serif" font-size="8.00">Out( pk(~ltkA) )</text>
</g>
<!-- n27&#45;&gt;n11 -->
<g id="edge12" class="edge">
<title>n27:n24&#45;&gt;n11:n6</title>
<path fill="none" stroke="#7f7f7f" stroke-width="2" d="M352,-782C346.02,-782 347.31,-775.74 342,-773 305.9,-754.35 254.33,-788.4 245.36,-761.02"/>
<polygon fill="#7f7f7f" stroke="#7f7f7f" stroke-width="2" points="248.81,-760.44 244,-751 241.87,-761.38 248.81,-760.44"/>
</g>
<!-- n47 -->
<g id="node8" class="node">
<title>n47</title>
<polygon fill="#c0da98" stroke="black" points="660,-360.5 660,-438.5 1028,-438.5 1028,-360.5 660,-360.5"/>
<text text-anchor="start" x="668" y="-423.6" font-family="Helvetica,sans-Serif" font-size="8.00">State_A_1( ~ID, ~k1,</text>
<text text-anchor="start" x="668" y="-414.6" font-family="Helvetica,sans-Serif" font-size="8.00">           ~weight</text>
<text text-anchor="start" x="668" y="-405.6" font-family="Helvetica,sans-Serif" font-size="8.00">)</text>
<polyline fill="none" stroke="black" points="760,-394.5 760,-438.5 "/>
<text text-anchor="start" x="768" y="-423.6" font-family="Helvetica,sans-Serif" font-size="8.00">!Pk_CKKS( &#39;B&#39;,</text>
<text text-anchor="start" x="768" y="-414.6" font-family="Helvetica,sans-Serif" font-size="8.00">          pk(~ltkA)</text>
<text text-anchor="start" x="768" y="-405.6" font-family="Helvetica,sans-Serif" font-size="8.00">)</text>
<polyline fill="none" stroke="black" points="837,-394.5 837,-438.5 "/>
<text text-anchor="start" x="845" y="-428.1" font-family="Helvetica,sans-Serif" font-size="8.00">In_A( &#39;2&#39;,</text>
<text text-anchor="start" x="845" y="-419.1" font-family="Helvetica,sans-Serif" font-size="8.00">      &lt;RO(RO(~ID, ~k1), ~k2), RO(~ID, ~k2), </text>
<text text-anchor="start" x="845" y="-410.1" font-family="Helvetica,sans-Serif" font-size="8.00">       CKKS_enc(~score, pk(~ltkA))&gt;</text>
<text text-anchor="start" x="845" y="-401.1" font-family="Helvetica,sans-Serif" font-size="8.00">)</text>
<polyline fill="none" stroke="black" points="660,-394.5 1028,-394.5 "/>
<text text-anchor="middle" x="844" y="-384.1" font-family="Helvetica,sans-Serif" font-size="8.00">#vr.6 : A_2[Eq( true, true )]</text>
<polyline fill="none" stroke="black" points="660,-377.5 1028,-377.5 "/>
<text text-anchor="middle" x="844" y="-367.1" font-family="Helvetica,sans-Serif" font-size="8.00">Out_A( &#39;3&#39;, CKKS_mul(CKKS_enc(~score, pk(~ltkA)), CKKS_enc(~weight, pk(~ltkA))) )</text>
</g>
<!-- n27&#45;&gt;n47 -->
<g id="edge14" class="edge">
<title>n27:n25&#45;&gt;n47:n43</title>
<path fill="none" stroke="#7f7f7f" stroke-width="2" d="M514,-773C514,-581.57 788.1,-631.97 797.74,-449.05"/>
<polygon fill="#7f7f7f" stroke="#7f7f7f" stroke-width="2" points="801.24,-449.09 798,-439 794.24,-448.91 801.24,-449.09"/>
</g>
<!-- n27&#45;&gt;n85 -->
<g id="edge13" class="edge">
<title>n27:n24&#45;&gt;n85:n80</title>
<path fill="none" stroke="#7f7f7f" stroke-width="2" d="M404,-773C404,-735.33 1039.45,-784.27 1118.88,-757.43"/>
<polygon fill="#7f7f7f" stroke="#7f7f7f" stroke-width="2" points="1121.33,-759.95 1127,-751 1116.99,-754.46 1121.33,-759.95"/>
</g>
<!-- n31 -->
<g id="node5" class="node">
<title>n31</title>
<polygon fill="#c0c0c0" stroke="black" points="436,-66.5 436,-117.5 764,-117.5 764,-66.5 436,-66.5"/>
<text text-anchor="middle" x="600" y="-107.1" font-family="Helvetica,sans-Serif" font-size="8.00">!Auth( &#39;3&#39;, CKKS_enc(mul(~score, ~weight), pk(~ltkA)) )</text>
<polyline fill="none" stroke="black" points="436,-100.5 764,-100.5 "/>
<text text-anchor="middle" x="600" y="-90.1" font-family="Helvetica,sans-Serif" font-size="8.00">#vr.3 : ChanIn_A[ChanIn_A( &#39;3&#39;, CKKS_enc(mul(~score, ~weight), pk(~ltkA)) )]</text>
<polyline fill="none" stroke="black" points="436,-83.5 764,-83.5 "/>
<text text-anchor="middle" x="600" y="-73.1" font-family="Helvetica,sans-Serif" font-size="8.00">In_A( &#39;3&#39;, CKKS_enc(mul(~score, ~weight), pk(~ltkA)) )</text>
</g>
<!-- n31&#45;&gt;n3 -->
<g id="edge15" class="edge">
<title>n31:n30&#45;&gt;n3:n1</title>
<path fill="none" stroke="black" stroke-width="2" d="M435,-75C430.98,-75 433.15,-68.84 436,-66 469.12,-33.07 612.44,-77.48 645,-44 645.82,-43.16 646.59,-42.12 647.24,-41"/>
<polygon fill="black" stroke="black" stroke-width="2" points="650.71,-40.49 646,-31 643.76,-41.36 650.71,-40.49"/>
</g>
<!-- n36 -->
<g id="node6" class="node">
<title>n36</title>
<polygon fill="#afeeee" stroke="black" points="501.5,-140.5 501.5,-209.5 924.5,-209.5 924.5,-140.5 501.5,-140.5"/>
<text text-anchor="middle" x="713" y="-199.1" font-family="Helvetica,sans-Serif" font-size="8.00">!Auth( &#39;3&#39;, CKKS_mul(CKKS_enc(~score, pk(~ltkA)), CKKS_enc(~weight, pk(~ltkA))) )</text>
<polyline fill="none" stroke="black" points="501.5,-192.5 924.5,-192.5 "/>
<text text-anchor="middle" x="713" y="-182.1" font-family="Helvetica,sans-Serif" font-size="8.00">#vr.4 : transform[Transform( )]</text>
<polyline fill="none" stroke="black" points="501.5,-175.5 924.5,-175.5 "/>
<text text-anchor="start" x="509.5" y="-165.1" font-family="Helvetica,sans-Serif" font-size="8.00">!Auth( &#39;3&#39;,</text>
<text text-anchor="start" x="509.5" y="-156.1" font-family="Helvetica,sans-Serif" font-size="8.00">       CKKS_enc(mul(~score, ~weight), pk(~ltkA))</text>
<text text-anchor="start" x="509.5" y="-147.1" font-family="Helvetica,sans-Serif" font-size="8.00">)</text>
<polyline fill="none" stroke="black" points="710.5,-140.5 710.5,-175.5 "/>
<text text-anchor="start" x="718.5" y="-165.1" font-family="Helvetica,sans-Serif" font-size="8.00">Out( &lt;&#39;3&#39;, </text>
<text text-anchor="start" x="718.5" y="-156.1" font-family="Helvetica,sans-Serif" font-size="8.00">      CKKS_enc(mul(~score, ~weight), pk(~ltkA))&gt;</text>
<text text-anchor="start" x="718.5" y="-147.1" font-family="Helvetica,sans-Serif" font-size="8.00">)</text>
</g>
<!-- n36&#45;&gt;n31 -->
<g id="edge16" class="edge">
<title>n36:n34&#45;&gt;n31:n28</title>
<path fill="none" stroke="#7f7f7f" stroke-width="2" d="M606,-140C606,-107.32 719.27,-137.79 757.12,-115.79"/>
<polygon fill="#7f7f7f" stroke="#7f7f7f" stroke-width="2" points="759.71,-118.18 765,-109 755.14,-112.88 759.71,-118.18"/>
</g>
<!-- n41 -->
<g id="node7" class="node">
<title>n41</title>
<polygon fill="#c0c0c0" stroke="black" points="628,-232.5 628,-337.5 1014,-337.5 1014,-232.5 628,-232.5"/>
<text text-anchor="middle" x="821" y="-327.1" font-family="Helvetica,sans-Serif" font-size="8.00">Out_A( &#39;3&#39;, CKKS_mul(CKKS_enc(~score, pk(~ltkA)), CKKS_enc(~weight, pk(~ltkA))) )</text>
<polyline fill="none" stroke="black" points="628,-320.5 1014,-320.5 "/>
<text text-anchor="start" x="636" y="-310.1" font-family="Helvetica,sans-Serif" font-size="8.00">#vr.5 : ChanOut_A[ChanOut_A( &#39;3&#39;,</text>
<text text-anchor="start" x="636" y="-301.1" font-family="Helvetica,sans-Serif" font-size="8.00">                             CKKS_mul(CKKS_enc(~score, pk(~ltkA)), CKKS_enc(~weight, pk(~ltkA)))</text>
<text text-anchor="start" x="636" y="-292.1" font-family="Helvetica,sans-Serif" font-size="8.00">                  )]</text>
<polyline fill="none" stroke="black" points="628,-285.5 1014,-285.5 "/>
<text text-anchor="start" x="636" y="-270.6" font-family="Helvetica,sans-Serif" font-size="8.00">!Auth( &#39;3&#39;,</text>
<text text-anchor="start" x="636" y="-261.6" font-family="Helvetica,sans-Serif" font-size="8.00">       CKKS_mul(CKKS_enc(~score, pk(~ltkA)),</text>
<text text-anchor="start" x="636" y="-252.6" font-family="Helvetica,sans-Serif" font-size="8.00">                CKKS_enc(~weight, pk(~ltkA)))</text>
<text text-anchor="start" x="636" y="-243.6" font-family="Helvetica,sans-Serif" font-size="8.00">)</text>
<polyline fill="none" stroke="black" points="822,-232.5 822,-285.5 "/>
<text text-anchor="start" x="830" y="-275.1" font-family="Helvetica,sans-Serif" font-size="8.00">Out( &lt;&#39;3&#39;, </text>
<text text-anchor="start" x="830" y="-266.1" font-family="Helvetica,sans-Serif" font-size="8.00">      CKKS_mul(CKKS_enc(~score, pk(~ltkA)),</text>
<text text-anchor="start" x="830" y="-257.1" font-family="Helvetica,sans-Serif" font-size="8.00">               CKKS_enc(~weight, pk(~ltkA)))</text>
<text text-anchor="start" x="830" y="-248.1" font-family="Helvetica,sans-Serif" font-size="8.00">     &gt;</text>
<text text-anchor="start" x="830" y="-239.1" font-family="Helvetica,sans-Serif" font-size="8.00">)</text>
</g>
<!-- n41&#45;&gt;n36 -->
<g id="edge17" class="edge">
<title>n41:n39&#45;&gt;n36:n32</title>
<path fill="none" stroke="#7f7f7f" stroke-width="2" d="M725,-232C725,-225.21 720.54,-222.66 717.06,-219.19"/>
<polygon fill="#7f7f7f" stroke="#7f7f7f" stroke-width="2" points="720.25,-217.73 713,-210 713.84,-220.56 720.25,-217.73"/>
</g>
<!-- n47&#45;&gt;n41 -->
<g id="edge18" class="edge">
<title>n47:n46&#45;&gt;n41:n37</title>
<path fill="none" stroke="black" stroke-width="2" d="M844,-360C844,-350.27 833.13,-350.21 826.33,-346.52"/>
<polygon fill="black" stroke="black" stroke-width="2" points="829.27,-344.62 821,-338 823.34,-348.33 829.27,-344.62"/>
</g>
<!-- n53&#45;&gt;n47 -->
<g id="edge19" class="edge">
<title>n53:n52&#45;&gt;n47:n42</title>
<path fill="none" stroke="black" stroke-width="2" d="M734,-930C748.45,-930 731,-814.45 731,-800 731,-800 731,-800 731,-600.5 731,-531.65 712,-513.15 710.15,-449.22"/>
<polygon fill="black" stroke="black" stroke-width="2" points="713.64,-448.95 710,-439 706.64,-449.05 713.64,-448.95"/>
</g>
<!-- n57 -->
<g id="node10" class="node">
<title>n57</title>
<polygon fill="#c0c0c0" stroke="black" points="127,-773.5 127,-824.5 331,-824.5 331,-773.5 127,-773.5"/>
<text text-anchor="middle" x="229" y="-814.1" font-family="Helvetica,sans-Serif" font-size="8.00">!Auth( &#39;1&#39;, RO(~ID, ~k1) )</text>
<polyline fill="none" stroke="black" points="127,-807.5 331,-807.5 "/>
<text text-anchor="middle" x="229" y="-797.1" font-family="Helvetica,sans-Serif" font-size="8.00">#vr.8 : ChanIn_A[ChanIn_A( &#39;1&#39;, RO(~ID, ~k1) )]</text>
<polyline fill="none" stroke="black" points="127,-790.5 331,-790.5 "/>
<text text-anchor="middle" x="229" y="-780.1" font-family="Helvetica,sans-Serif" font-size="8.00">In_A( &#39;1&#39;, RO(~ID, ~k1) )</text>
</g>
<!-- n57&#45;&gt;n11 -->
<g id="edge20" class="edge">
<title>n57:n56&#45;&gt;n11:n7</title>
<path fill="none" stroke="black" stroke-width="2" d="M229,-773C229,-721.99 333.56,-793.79 349.08,-761.02"/>
<polygon fill="black" stroke="black" stroke-width="2" points="352.56,-761.48 351,-751 345.68,-760.16 352.56,-761.48"/>
</g>
<!-- n62 -->
<g id="node11" class="node">
<title>n62</title>
<polygon fill="#c0c0c0" stroke="black" points="149,-847.5 149,-898.5 387,-898.5 387,-847.5 149,-847.5"/>
<text text-anchor="middle" x="268" y="-888.1" font-family="Helvetica,sans-Serif" font-size="8.00">Out_A( &#39;1&#39;, RO(~ID, ~k1) )</text>
<polyline fill="none" stroke="black" points="149,-881.5 387,-881.5 "/>
<text text-anchor="middle" x="268" y="-871.1" font-family="Helvetica,sans-Serif" font-size="8.00">#vr.9 : ChanOut_A[ChanOut_A( &#39;1&#39;, RO(~ID, ~k1) )]</text>
<polyline fill="none" stroke="black" points="149,-864.5 387,-864.5 "/>
<text text-anchor="middle" x="207" y="-854.1" font-family="Helvetica,sans-Serif" font-size="8.00">!Auth( &#39;1&#39;, RO(~ID, ~k1) )</text>
<polyline fill="none" stroke="black" points="265,-847.5 265,-864.5 "/>
<text text-anchor="middle" x="326" y="-854.1" font-family="Helvetica,sans-Serif" font-size="8.00">Out( &lt;&#39;1&#39;, RO(~ID, ~k1)&gt; )</text>
</g>
<!-- n62&#45;&gt;n57 -->
<g id="edge21" class="edge">
<title>n62:n60&#45;&gt;n57:n54</title>
<path fill="none" stroke="#7f7f7f" stroke-width="2" d="M207,-847C207,-837.71 216.93,-837.21 223.45,-833.7"/>
<polygon fill="#7f7f7f" stroke="#7f7f7f" stroke-width="2" points="226.57,-835.31 229,-825 220.67,-831.55 226.57,-835.31"/>
</g>
<!-- n68&#45;&gt;n62 -->
<g id="edge22" class="edge">
<title>n68:n66&#45;&gt;n62:n58</title>
<path fill="none" stroke="black" stroke-width="2" d="M204,-921C204,-895.39 250.41,-919.25 264.19,-908.33"/>
<polygon fill="black" stroke="black" stroke-width="2" points="267.46,-909.58 268,-899 260.98,-906.93 267.46,-909.58"/>
</g>
<!-- n72 -->
<g id="node13" class="node">
<title>n72</title>
<polygon fill="#c0c0c0" stroke="black" points="811,-461.5 811,-530.5 1175,-530.5 1175,-461.5 811,-461.5"/>
<text text-anchor="middle" x="993" y="-520.1" font-family="Helvetica,sans-Serif" font-size="8.00">!Auth( &#39;2&#39;, &lt;RO(RO(~ID, ~k1), ~k2), RO(~ID, ~k2), CKKS_enc(~score, pk(~ltkA))&gt; )</text>
<polyline fill="none" stroke="black" points="811,-513.5 1175,-513.5 "/>
<text text-anchor="start" x="819" y="-503.1" font-family="Helvetica,sans-Serif" font-size="8.00">#vr.11 : ChanIn_A[ChanIn_A( &#39;2&#39;,</text>
<text text-anchor="start" x="819" y="-494.1" font-family="Helvetica,sans-Serif" font-size="8.00">                            &lt;RO(RO(~ID, ~k1), ~k2), RO(~ID, ~k2), CKKS_enc(~score, pk(~ltkA))&gt;</text>
<text text-anchor="start" x="819" y="-485.1" font-family="Helvetica,sans-Serif" font-size="8.00">                  )]</text>
<polyline fill="none" stroke="black" points="811,-478.5 1175,-478.5 "/>
<text text-anchor="middle" x="993" y="-468.1" font-family="Helvetica,sans-Serif" font-size="8.00">In_A( &#39;2&#39;, &lt;RO(RO(~ID, ~k1), ~k2), RO(~ID, ~k2), CKKS_enc(~score, pk(~ltkA))&gt; )</text>
</g>
<!-- n72&#45;&gt;n47 -->
<g id="edge23" class="edge">
<title>n72:n71&#45;&gt;n47:n44</title>
<path fill="none" stroke="black" stroke-width="2" d="M810,-470C805.98,-470 808.25,-463.94 811,-461 845.83,-423.73 920.73,-483.83 931.66,-449.24"/>
<polygon fill="black" stroke="black" stroke-width="2" points="935.17,-449.37 933,-439 928.23,-448.46 935.17,-449.37"/>
</g>
<!-- n77 -->
<g id="node14" class="node">
<title>n77</title>
<polygon fill="#c0c0c0" stroke="black" points="854.5,-553.5 854.5,-649.5 1259.5,-649.5 1259.5,-553.5 854.5,-553.5"/>
<text text-anchor="middle" x="1057" y="-639.1" font-family="Helvetica,sans-Serif" font-size="8.00">Out_A( &#39;2&#39;, &lt;RO(RO(~ID, ~k1), ~k2), RO(~ID, ~k2), CKKS_enc(~score, pk(~ltkA))&gt; )</text>
<polyline fill="none" stroke="black" points="854.5,-632.5 1259.5,-632.5 "/>
<text text-anchor="start" x="862.5" y="-622.1" font-family="Helvetica,sans-Serif" font-size="8.00">#vr.12 : ChanOut_A[ChanOut_A( &#39;2&#39;,</text>
<text text-anchor="start" x="862.5" y="-613.1" font-family="Helvetica,sans-Serif" font-size="8.00">                              &lt;RO(RO(~ID, ~k1), ~k2), RO(~ID, ~k2), CKKS_enc(~score, pk(~ltkA))&gt;</text>
<text text-anchor="start" x="862.5" y="-604.1" font-family="Helvetica,sans-Serif" font-size="8.00">                   )]</text>
<polyline fill="none" stroke="black" points="854.5,-597.5 1259.5,-597.5 "/>
<text text-anchor="start" x="862.5" y="-587.1" font-family="Helvetica,sans-Serif" font-size="8.00">!Auth( &#39;2&#39;,</text>
<text text-anchor="start" x="862.5" y="-578.1" font-family="Helvetica,sans-Serif" font-size="8.00">       &lt;RO(RO(~ID, ~k1), ~k2), RO(~ID, ~k2), </text>
<text text-anchor="start" x="862.5" y="-569.1" font-family="Helvetica,sans-Serif" font-size="8.00">        CKKS_enc(~score, pk(~ltkA))&gt;</text>
<text text-anchor="start" x="862.5" y="-560.1" font-family="Helvetica,sans-Serif" font-size="8.00">)</text>
<polyline fill="none" stroke="black" points="1047.5,-553.5 1047.5,-597.5 "/>
<text text-anchor="start" x="1055.5" y="-582.6" font-family="Helvetica,sans-Serif" font-size="8.00">Out( &lt;&#39;2&#39;, RO(RO(~ID, ~k1), ~k2), </text>
<text text-anchor="start" x="1055.5" y="-573.6" font-family="Helvetica,sans-Serif" font-size="8.00">      RO(~ID, ~k2), CKKS_enc(~score, pk(~ltkA))&gt;</text>
<text text-anchor="start" x="1055.5" y="-564.6" font-family="Helvetica,sans-Serif" font-size="8.00">)</text>
</g>
<!-- n77&#45;&gt;n72 -->
<g id="edge24" class="edge">
<title>n77:n75&#45;&gt;n72:n69</title>
<path fill="none" stroke="#7f7f7f" stroke-width="2" d="M951,-553C951,-536.54 976.63,-545.23 987.85,-539.77"/>
<polygon fill="#7f7f7f" stroke="#7f7f7f" stroke-width="2" points="990.96,-541.4 993,-531 984.92,-537.85 990.96,-541.4"/>
</g>
<!-- n85&#45;&gt;n77 -->
<g id="edge25" class="edge">
<title>n85:n83&#45;&gt;n77:n73</title>
<path fill="none" stroke="black" stroke-width="2" d="M1007,-672C1007,-652.27 1040.01,-666.11 1052.39,-658.97"/>
<polygon fill="black" stroke="black" stroke-width="2" points="1055.54,-660.49 1057,-650 1049.31,-657.29 1055.54,-660.49"/>
</g>
<!-- n89 -->
<g id="node16" class="node">
<title>n89</title>
<polygon fill="#c0c0c0" stroke="black" points="1129.5,-773.5 1129.5,-824.5 1338.5,-824.5 1338.5,-773.5 1129.5,-773.5"/>
<text text-anchor="middle" x="1234" y="-814.1" font-family="Helvetica,sans-Serif" font-size="8.00">!Auth( &#39;1&#39;, RO(~ID, ~k1) )</text>
<polyline fill="none" stroke="black" points="1129.5,-807.5 1338.5,-807.5 "/>
<text text-anchor="middle" x="1234" y="-797.1" font-family="Helvetica,sans-Serif" font-size="8.00">#vr.14 : ChanIn_A[ChanIn_A( &#39;1&#39;, RO(~ID, ~k1) )]</text>
<polyline fill="none" stroke="black" points="1129.5,-790.5 1338.5,-790.5 "/>
<text text-anchor="middle" x="1234" y="-780.1" font-family="Helvetica,sans-Serif" font-size="8.00">In_A( &#39;1&#39;, RO(~ID, ~k1) )</text>
</g>
<!-- n89&#45;&gt;n85 -->
<g id="edge26" class="edge">
<title>n89:n88&#45;&gt;n85:n81</title>
<path fill="none" stroke="black" stroke-width="2" d="M1128,-782C1123.98,-782 1126.29,-775.98 1129,-773 1158.31,-740.74 1221.77,-788.91 1232.46,-761.02"/>
<polygon fill="black" stroke="black" stroke-width="2" points="1235.94,-761.42 1234,-751 1229.02,-760.35 1235.94,-761.42"/>
</g>
<!-- n94 -->
<g id="node17" class="node">
<title>n94</title>
<polygon fill="#c0c0c0" stroke="black" points="1152,-847.5 1152,-898.5 1390,-898.5 1390,-847.5 1152,-847.5"/>
<text text-anchor="middle" x="1271" y="-888.1" font-family="Helvetica,sans-Serif" font-size="8.00">Out_A( &#39;1&#39;, RO(~ID, ~k1) )</text>
<polyline fill="none" stroke="black" points="1152,-881.5 1390,-881.5 "/>
<text text-anchor="middle" x="1271" y="-871.1" font-family="Helvetica,sans-Serif" font-size="8.00">#vr.15 : ChanOut_A[ChanOut_A( &#39;1&#39;, RO(~ID, ~k1) )]</text>
<polyline fill="none" stroke="black" points="1152,-864.5 1390,-864.5 "/>
<text text-anchor="middle" x="1210" y="-854.1" font-family="Helvetica,sans-Serif" font-size="8.00">!Auth( &#39;1&#39;, RO(~ID, ~k1) )</text>
<polyline fill="none" stroke="black" points="1268,-847.5 1268,-864.5 "/>
<text text-anchor="middle" x="1329" y="-854.1" font-family="Helvetica,sans-Serif" font-size="8.00">Out( &lt;&#39;1&#39;, RO(~ID, ~k1)&gt; )</text>
</g>
<!-- n94&#45;&gt;n89 -->
<g id="edge27" class="edge">
<title>n94:n92&#45;&gt;n89:n86</title>
<path fill="none" stroke="#7f7f7f" stroke-width="2" d="M1210,-847C1210,-837.05 1221.34,-837.22 1228.43,-833.6"/>
<polygon fill="#7f7f7f" stroke="#7f7f7f" stroke-width="2" points="1231.5,-835.3 1234,-825 1225.63,-831.49 1231.5,-835.3"/>
</g>
<!-- n100&#45;&gt;n94 -->
<g id="edge28" class="edge">
<title>n100:n98&#45;&gt;n94:n90</title>
<path fill="none" stroke="black" stroke-width="2" d="M814,-921C814,-903.74 1082.14,-892.05 1140.67,-890.24"/>
<polygon fill="black" stroke="black" stroke-width="2" points="1141.09,-893.73 1151,-890 1140.92,-886.74 1141.09,-893.73"/>
</g>
</g>
</svg>
